<?xml version="1.0" encoding="UTF-8"?>
<svg id="Layer_1" data-name="Layer 1" xmlns="http://www.w3.org/2000/svg" xmlns:xlink="http://www.w3.org/1999/xlink" viewBox="0 0 1024 1024">
  <defs>
    <style>
      .cls-1 {
        fill: #fff;
      }

      .cls-2 {
        stroke: url(#linear-gradient-3);
      }

      .cls-2, .cls-3 {
        stroke-width: 48px;
      }

      .cls-2, .cls-3, .cls-4, .cls-5 {
        stroke-linecap: round;
        stroke-linejoin: round;
      }

      .cls-3 {
        stroke: url(#linear-gradient-2);
      }

      .cls-4 {
        stroke: url(#linear-gradient);
        stroke-width: 69px;
      }

      .cls-5 {
        stroke: url(#linear-gradient-4);
        stroke-width: 40px;
      }
    </style>
    <linearGradient id="linear-gradient" x1="257.28" y1="355.3" x2="765.87" y2="355.3" gradientTransform="translate(401.07 -257.68) rotate(45)" gradientUnits="userSpaceOnUse">
      <stop offset="0" stop-color="#3bf6fc"/>
      <stop offset=".21" stop-color="#3bcbc8" stop-opacity=".77"/>
      <stop offset=".6" stop-color="#3b7d6c" stop-opacity=".36"/>
      <stop offset=".87" stop-color="#3b4c32" stop-opacity=".1"/>
      <stop offset="1" stop-color="#3b3a1c" stop-opacity="0"/>
    </linearGradient>
    <linearGradient id="linear-gradient-2" x1="118.91" y1="666.81" x2="449.16" y2="666.81" gradientTransform="translate(554.7 -5.54) rotate(45)" xlink:href="#linear-gradient"/>
    <linearGradient id="linear-gradient-3" x1="566.75" y1="666.81" x2="905.32" y2="666.81" gradientTransform="translate(687.09 -325.15) rotate(45)" xlink:href="#linear-gradient"/>
    <linearGradient id="linear-gradient-4" x1="406.07" y1="805.45" x2="618.91" y2="805.45" gradientTransform="translate(719.65 -126.47) rotate(45)" xlink:href="#linear-gradient"/>
  </defs>
  <path class="cls-1" d="m991.79,666.81c0,29.42-11.42,57.04-32.17,77.78l-145.8,145.81c-20.75,20.75-48.37,32.17-77.79,32.17s-57.03-11.42-77.78-32.17l-.11-.11-71.4,71.4c-19.81,19.8-46.18,30.71-74.25,30.71s-54.44-10.91-74.24-30.71l-73.98-73.98c-22.03,19.85-50.28,30.71-80.24,30.71-32.09,0-62.22-12.46-84.85-35.09l-131.66-131.66c-46.79-46.79-46.79-122.92,0-169.71l131.66-131.66c1.26-1.26,2.55-2.49,3.86-3.68-50.1-50.72-49.9-132.76.59-183.25L419.65,47.35c24.51-24.51,57.16-38,91.93-38s67.41,13.49,91.92,38l216.02,216.02c24.51,24.51,38.01,57.16,38.01,91.93s-13.5,67.42-38.01,91.92l-.85.86,140.95,140.95c20.75,20.75,32.17,48.37,32.17,77.78Z"/>
  <g>
    <rect class="cls-4" x="338.53" y="182.25" width="346.09" height="346.09" rx="60" ry="60" transform="translate(-101.4 465.8) rotate(-45)"/>
    <rect class="cls-3" x="169.55" y="552.33" width="228.96" height="228.96" rx="50" ry="50" transform="translate(-388.32 396.15) rotate(-45)"/>
    <rect class="cls-2" x="621.55" y="552.33" width="228.96" height="228.96" rx="40" ry="40" transform="translate(-255.93 715.76) rotate(-45)"/>
    <rect class="cls-5" x="441.1" y="734.06" width="142.78" height="142.78" rx="35" ry="35" transform="translate(-419.44 598.3) rotate(-45)"/>
  </g>
</svg>