<?xml version="1.0" encoding="UTF-8"?>
<svg id="Layer_1" data-name="Layer 1" xmlns="http://www.w3.org/2000/svg" viewBox="0 0 1024 1024">
  <path d="m511.58,119.35c3.12,0,9.11.75,14.14,5.79l216.02,216.02c7.67,7.67,7.67,20.62,0,28.28l-216.02,216.02c-5.03,5.03-11.02,5.78-14.14,5.78s-9.11-.75-14.14-5.79l-216.02-216.02c-5.03-5.03-5.79-11.02-5.79-14.14s.75-9.11,5.79-14.14l216.02-216.02c5.03-5.03,11.02-5.79,14.14-5.79m0-40c-15.38,0-30.76,5.83-42.43,17.5l-216.02,216.02c-23.33,23.33-23.33,61.52,0,84.85l216.02,216.02c11.67,11.67,27.05,17.5,42.43,17.5s30.76-5.83,42.43-17.5l216.02-216.02c23.33-23.33,23.33-61.52,0-84.85l-216.02-216.02c-11.67-11.67-27.05-17.5-42.43-17.5h0Z"/>
  <path d="m284.03,520.21c2.34,0,6.84.56,10.61,4.33l131.66,131.66c5.75,5.75,5.75,15.46,0,21.21l-131.66,131.66c-3.77,3.77-8.26,4.33-10.61,4.33s-6.84-.56-10.61-4.33l-131.66-131.66c-5.75-5.75-5.75-15.46,0-21.21l131.66-131.66c3.77-3.77,8.26-4.33,10.61-4.33m0-35c-12.82,0-25.63,4.86-35.36,14.58l-131.66,131.66c-19.45,19.45-19.45,51.27,0,70.71l131.66,131.66c9.72,9.72,22.54,14.58,35.36,14.58s25.63-4.86,35.36-14.58l131.66-131.66c19.45-19.45,19.45-51.27,0-70.71l-131.66-131.66c-9.72-9.72-22.54-14.58-35.36-14.58h0Z"/>
  <path d="m736.03,516.06c.97,0,2.37.25,3.54,1.42l145.81,145.81c1.17,1.17,1.42,2.57,1.42,3.54s-.25,2.37-1.42,3.54l-145.81,145.81c-1.17,1.17-2.57,1.42-3.54,1.42s-2.37-.25-3.54-1.42l-145.81-145.81c-1.88-1.88-1.88-5.19,0-7.07l145.81-145.81c1.17-1.17,2.57-1.42,3.54-1.42m0-35c-10.25,0-20.51,3.89-28.28,11.67l-145.81,145.81c-15.56,15.56-15.56,41.01,0,56.57l145.81,145.81c7.78,7.78,18.03,11.67,28.28,11.67s20.51-3.89,28.28-11.67l145.81-145.81c15.56-15.56,15.56-41.01,0-56.57l-145.81-145.81c-7.78-7.78-18.03-11.67-28.28-11.67h0Z"/>
  <path d="m512.49,718.51c.96,0,2.36.25,3.54,1.42l81.99,81.99c1.18,1.18,1.42,2.57,1.42,3.54s-.25,2.36-1.42,3.54l-81.99,81.99c-1.18,1.18-2.57,1.42-3.54,1.42s-2.36-.25-3.54-1.42l-81.99-81.99c-1.18-1.18-1.42-2.57-1.42-3.54s.25-2.36,1.42-3.54l81.99-81.99c1.18-1.18,2.57-1.42,3.54-1.42m0-30c-8.97,0-17.94,3.4-24.75,10.21l-81.99,81.99c-13.61,13.61-13.61,35.89,0,49.5l81.99,81.99c6.81,6.81,15.78,10.21,24.75,10.21s17.94-3.4,24.75-10.21l81.99-81.99c13.61-13.61,13.61-35.89,0-49.5l-81.99-81.99c-6.81-6.81-15.78-10.21-24.75-10.21h0Z"/>
</svg>